<svg id="Layer_1" data-name="Layer 1" xmlns="http://www.w3.org/2000/svg" xmlns:xlink="http://www.w3.org/1999/xlink" viewBox="0 0 32 32"><defs><style>.cls-1{fill:url(#linear-gradient);}.cls-2{fill:url(#linear-gradient-2);}.cls-3{fill:url(#linear-gradient-3);}.cls-4{fill:url(#linear-gradient-4);}.cls-5{fill:url(#linear-gradient-5);}.cls-6{fill:url(#linear-gradient-6);}.cls-7{fill:url(#linear-gradient-7);}.cls-8{fill:url(#linear-gradient-8);}.cls-9{fill:url(#linear-gradient-9);}.cls-10{fill:#d2de26;}.cls-11{fill:url(#linear-gradient-10);}.cls-12{fill:url(#linear-gradient-11);}</style><linearGradient id="linear-gradient" x1="24.93" y1="5.83" x2="27.3" y2="5.83" gradientUnits="userSpaceOnUse"><stop offset="0" stop-color="#5fc8d8"/><stop offset="1" stop-color="#525556"/></linearGradient><linearGradient id="linear-gradient-2" x1="22.67" y1="10.37" x2="23.35" y2="10.37" xlink:href="#linear-gradient"/><linearGradient id="linear-gradient-3" x1="12.53" y1="10.77" x2="4.99" y2="28.47" gradientUnits="userSpaceOnUse"><stop offset="0" stop-color="#d2de26"/><stop offset="1" stop-color="#525556"/></linearGradient><linearGradient id="linear-gradient-4" x1="11.81" y1="10.47" x2="4.28" y2="28.17" xlink:href="#linear-gradient-3"/><linearGradient id="linear-gradient-5" x1="13.33" y1="11.12" x2="5.8" y2="28.82" xlink:href="#linear-gradient-3"/><linearGradient id="linear-gradient-6" x1="14.31" y1="11.53" x2="6.78" y2="29.23" xlink:href="#linear-gradient-3"/><linearGradient id="linear-gradient-7" x1="30.33" y1="2.67" x2="23.32" y2="20.44" xlink:href="#linear-gradient-3"/><linearGradient id="linear-gradient-8" x1="27.9" y1="1.71" x2="20.89" y2="19.48" xlink:href="#linear-gradient-3"/><linearGradient id="linear-gradient-9" x1="28.41" y1="1.91" x2="21.41" y2="19.69" gradientUnits="userSpaceOnUse"><stop offset="0" stop-color="#d2de26"/><stop offset="0.26" stop-color="#d0db27"/><stop offset="0.43" stop-color="#c7d32a"/><stop offset="0.57" stop-color="#b9c42f"/><stop offset="0.69" stop-color="#a6af37"/><stop offset="0.81" stop-color="#8c9340"/><stop offset="0.92" stop-color="#6e734c"/><stop offset="1" stop-color="#525556"/></linearGradient><linearGradient id="linear-gradient-10" x1="8.71" y1="9.3" x2="21.79" y2="28.25" gradientUnits="userSpaceOnUse"><stop offset="0" stop-color="#525556"/><stop offset="0.23" stop-color="#7e8446"/><stop offset="0.47" stop-color="#a2ab38"/><stop offset="0.68" stop-color="#bdc72e"/><stop offset="0.86" stop-color="#ccd828"/><stop offset="1" stop-color="#d2de26"/></linearGradient><linearGradient id="linear-gradient-11" x1="6.76" y1="5.02" x2="25.89" y2="29.27" gradientUnits="userSpaceOnUse"><stop offset="0" stop-color="#d2de26"/><stop offset="0.18" stop-color="#ceda27"/><stop offset="0.35" stop-color="#c4cf2b"/><stop offset="0.52" stop-color="#b2bb32"/><stop offset="0.68" stop-color="#98a03c"/><stop offset="0.84" stop-color="#787d48"/><stop offset="1" stop-color="#525556"/></linearGradient></defs><rect width="32" height="32" rx="3.96"/><path class="cls-1" d="M27.3,5.87c0,.93-.53,1.64-1.2,1.61S24.91,6.7,24.93,5.8s.56-1.63,1.22-1.62S27.31,4.92,27.3,5.87Z"/><path class="cls-2" d="M23.35,9.42l-.68,1.9.66-1.86Z"/><path class="cls-3" d="M13.29,14.51,11.54,19.4,8.89,26.83a.36.36,0,0,1-.51.12.75.75,0,0,1-.19-.81l1.58-4.42h0a.93.93,0,0,0,.05-.29.77.77,0,0,0-.26-.6.37.37,0,0,0-.45,0,.57.57,0,0,0-.19.29L7.26,25.84c-.14.29-.41.38-.63.21a.82.82,0,0,1-.19-.92l.16-.43,1.24-3.19a.94.94,0,0,0,.07-.37.82.82,0,0,0-.28-.66.43.43,0,0,0-.63.1L5.74,23.84a1,1,0,0,1-.11.2.42.42,0,0,1-.62.1.86.86,0,0,1-.29-.67h0a1.1,1.1,0,0,1,.07-.36l5-13.32a7.83,7.83,0,0,1,2.41,2.45A12.65,12.65,0,0,1,13.29,14.51Z"/><path class="cls-4" d="M4.7,28l-.41-.29a.34.34,0,0,1-.09-.38L5,25.14c0-.13.17-.19.27-.12l.41.29a.34.34,0,0,1,.09.38L5,27.89C4.92,28,4.8,28.08,4.7,28Z"/><path class="cls-5" d="M5.37,30.68,5,30.39A.34.34,0,0,1,4.86,30l.79-2.2c0-.14.17-.19.27-.12l.41.29a.33.33,0,0,1,.09.37l-.79,2.2C5.58,30.69,5.46,30.75,5.37,30.68Z"/><path class="cls-6" d="M7.28,28.83l-.41-.29a.34.34,0,0,1-.09-.38l.47-1.33c0-.14.17-.19.27-.12l.41.29a.33.33,0,0,1,.09.37L7.55,28.7C7.5,28.84,7.38,28.9,7.28,28.83Z"/><path class="cls-7" d="M23.07,21.87l-.47-.37a.39.39,0,0,1-.09-.45l.95-2.42c.06-.16.2-.22.32-.13l.47.37a.42.42,0,0,1,.09.45l-.95,2.42A.21.21,0,0,1,23.07,21.87Z"/><path class="cls-8" d="M21.79,18l-.47-.36a.39.39,0,0,1-.09-.45l.53-1.37a.21.21,0,0,1,.32-.13l.47.37a.41.41,0,0,1,.1.45l-.54,1.36C22.05,18,21.9,18.08,21.79,18Z"/><path class="cls-9" d="M28.43,10.22l-.66,1.83-1,2.86-1,2.88L25.28,19a.39.39,0,0,1-.36-.05.86.86,0,0,1-.25-.91.14.14,0,0,1,0-.06c0-.16.11-.31.16-.47.25-.7.5-1.41.76-2.11.18-.52.37-1.05.56-1.57a.78.78,0,0,0,.07-.45.67.67,0,0,0-.37-.51.41.41,0,0,0-.4,0l0,0a1.84,1.84,0,0,0-.25.59c-.32.91-.65,1.81-1,2.72l-.39,1.1-.12.34c-.12.33-.41.47-.65.3a.82.82,0,0,1-.22-.91l.54-1.5c.09-.26.18-.52.28-.78.19-.55.38-1.09.58-1.63s.35-1,.55-1.54a.51.51,0,0,0,0-.4.85.85,0,0,0-.28-.4.57.57,0,0,0-.27-.11.24.24,0,0,0-.21.06,1,1,0,0,0-.23.49c-.2.53-.38,1.06-.57,1.59s-.31.88-.47,1.31c0,.07-.05.14-.07.22a.55.55,0,0,1-.23.3.35.35,0,0,1-.42,0,.82.82,0,0,1-.22-.91l.83-2.33.05-.15.68-1.9.21-.59a2.59,2.59,0,0,0-1.39-.24,2.35,2.35,0,0,1,1.74-.73,3.23,3.23,0,0,1,.85.18c.22.08.44.19.66.26,1.5.45,2.4-.31,2.6-2.45.13-1.42,0-2.88,0-4.56A18.6,18.6,0,0,1,28.43,10.22Z"/><path class="cls-10" d="M27.3,5.87c0,.93-.53,1.64-1.2,1.61S24.91,6.7,24.93,5.8s.56-1.63,1.22-1.62S27.31,4.92,27.3,5.87Z"/><path class="cls-11" d="M3.2,9.38c3.21-1.14,6.63-.74,9,2.86s2.35,9.16,5.42,11.9c2.32,2.08,5.29,2,7.9,1.41a22.22,22.22,0,0,1-2.3-.06,7.52,7.52,0,0,1-3.68-2,13.26,13.26,0,0,1-3.19-5.63c-.45-1.45-.66-3-1.21-4.37C14,10.79,12.27,8.73,10.14,8,7.8,7.22,5.34,8,3.2,9.38Z"/><path class="cls-12" d="M3.2,9.38C5.34,8,7.8,7.22,10.14,8c2.13.72,3.9,2.78,5,5.47.55,1.38.76,2.92,1.21,4.37a13.26,13.26,0,0,0,3.19,5.63,7.52,7.52,0,0,0,3.68,2,22.22,22.22,0,0,0,2.3.06c-.91-.1-1.69-1.24-2.27-2.11a30.9,30.9,0,0,1-2.67-5.37C18.7,13.5,17.77,8.24,13.91,6.2,10.27,4.26,6.21,6.34,3.2,9.38Z"/></svg>