<svg id="Layer_1" data-name="Layer 1" xmlns="http://www.w3.org/2000/svg" xmlns:xlink="http://www.w3.org/1999/xlink" viewBox="0 0 241.9 76.45"><defs><style>.cls-1{fill:url(#linear-gradient);}.cls-2{fill:url(#linear-gradient-2);}.cls-3{fill:url(#linear-gradient-3);}.cls-4{fill:url(#linear-gradient-4);}.cls-5{fill:url(#linear-gradient-5);}.cls-6{fill:url(#linear-gradient-6);}.cls-7{fill:url(#linear-gradient-7);}.cls-8{fill:url(#linear-gradient-8);}.cls-9{fill:url(#linear-gradient-9);}.cls-10{fill:#d2de26;}.cls-11{fill:url(#linear-gradient-10);}.cls-12{fill:url(#linear-gradient-11);}.cls-13{fill:#fff;}</style><linearGradient id="linear-gradient" x1="57.7" y1="48" x2="63.56" y2="48" gradientUnits="userSpaceOnUse"><stop offset="0" stop-color="#5fc8d8"/><stop offset="1" stop-color="#525556"/></linearGradient><linearGradient id="linear-gradient-2" x1="52.14" y1="59.2" x2="53.81" y2="59.2" xlink:href="#linear-gradient"/><linearGradient id="linear-gradient-3" x1="27.07" y1="60.2" x2="8.47" y2="103.91" gradientUnits="userSpaceOnUse"><stop offset="0" stop-color="#d2de26"/><stop offset="1" stop-color="#525556"/></linearGradient><linearGradient id="linear-gradient-4" x1="25.3" y1="59.44" x2="6.7" y2="103.16" xlink:href="#linear-gradient-3"/><linearGradient id="linear-gradient-5" x1="29.06" y1="61.04" x2="10.46" y2="104.76" xlink:href="#linear-gradient-3"/><linearGradient id="linear-gradient-6" x1="31.48" y1="62.07" x2="12.88" y2="105.79" xlink:href="#linear-gradient-3"/><linearGradient id="linear-gradient-7" x1="71.04" y1="40.17" x2="53.74" y2="84.07" xlink:href="#linear-gradient-3"/><linearGradient id="linear-gradient-8" x1="65.04" y1="37.81" x2="47.74" y2="81.71" xlink:href="#linear-gradient-3"/><linearGradient id="linear-gradient-9" x1="66.3" y1="38.31" x2="49" y2="82.2" gradientUnits="userSpaceOnUse"><stop offset="0" stop-color="#d2de26"/><stop offset="0.26" stop-color="#d0db27"/><stop offset="0.43" stop-color="#c7d32a"/><stop offset="0.57" stop-color="#b9c42f"/><stop offset="0.69" stop-color="#a6af37"/><stop offset="0.81" stop-color="#8c9340"/><stop offset="0.92" stop-color="#6e734c"/><stop offset="1" stop-color="#525556"/></linearGradient><linearGradient id="linear-gradient-10" x1="17.64" y1="56.56" x2="49.94" y2="103.36" gradientUnits="userSpaceOnUse"><stop offset="0" stop-color="#525556"/><stop offset="0.23" stop-color="#7e8446"/><stop offset="0.47" stop-color="#a2ab38"/><stop offset="0.68" stop-color="#bdc72e"/><stop offset="0.86" stop-color="#ccd828"/><stop offset="1" stop-color="#d2de26"/></linearGradient><linearGradient id="linear-gradient-11" x1="12.82" y1="45.98" x2="60.07" y2="105.87" gradientUnits="userSpaceOnUse"><stop offset="0" stop-color="#d2de26"/><stop offset="0.18" stop-color="#ceda27"/><stop offset="0.35" stop-color="#c4cf2b"/><stop offset="0.52" stop-color="#b2bb32"/><stop offset="0.68" stop-color="#98a03c"/><stop offset="0.84" stop-color="#787d48"/><stop offset="1" stop-color="#525556"/></linearGradient></defs><path class="cls-1" d="M63.56,48.08c0,2.31-1.31,4.05-3,4s-2.93-2-2.89-4.16,1.38-4,3-4S63.59,45.74,63.56,48.08Z" transform="translate(-4.05 -36.78)"/><path class="cls-2" d="M53.81,56.86l-1.67,4.68L53.77,57A.36.36,0,0,1,53.81,56.86Z" transform="translate(-4.05 -36.78)"/><path class="cls-3" d="M29,69.42,24.64,81.51,18.08,99.85a.85.85,0,0,1-1.24.29,1.81,1.81,0,0,1-.47-2l3.89-10.92h0a2.33,2.33,0,0,0,.12-.73A1.82,1.82,0,0,0,19.74,85a.88.88,0,0,0-1.09,0,1.46,1.46,0,0,0-.49.71L14.06,97.4c-.34.71-1,.95-1.55.53A2.07,2.07,0,0,1,12,95.66l.42-1.07,3.06-7.88a2.58,2.58,0,0,0,.17-.91A2.05,2.05,0,0,0,15,84.16a1,1,0,0,0-1.53.25l-3.12,8A1.66,1.66,0,0,1,10,93a1,1,0,0,1-1.53.26,2.1,2.1,0,0,1-.7-1.66h0A2.46,2.46,0,0,1,8,90.66l12.25-32.9a19.39,19.39,0,0,1,6,6.06A30.45,30.45,0,0,1,29,69.42Z" transform="translate(-4.05 -36.78)"/><path class="cls-4" d="M7.76,102.77l-1-.72a.82.82,0,0,1-.22-.93l1.93-5.43c.13-.35.42-.49.67-.31l1,.71a.86.86,0,0,1,.22.94l-1.94,5.43C8.3,102.8,8,102.94,7.76,102.77Z" transform="translate(-4.05 -36.78)"/><path class="cls-5" d="M9.39,109.36l-1-.72a.85.85,0,0,1-.22-.93l1.94-5.44c.12-.34.42-.48.66-.31l1,.72a.83.83,0,0,1,.22.93l-1.94,5.44C9.93,109.39,9.63,109.53,9.39,109.36Z" transform="translate(-4.05 -36.78)"/><path class="cls-6" d="M14.12,104.78l-1-.71a.85.85,0,0,1-.22-.93l1.17-3.29c.12-.34.42-.48.66-.31l1,.72a.82.82,0,0,1,.22.93l-1.17,3.28C14.66,104.82,14.36,105,14.12,104.78Z" transform="translate(-4.05 -36.78)"/><path class="cls-7" d="M53.12,87.59,52,86.68a1,1,0,0,1-.23-1.1l2.35-6c.16-.39.51-.54.79-.32l1.17.91a1,1,0,0,1,.23,1.1l-2.36,6C53.75,87.66,53.4,87.81,53.12,87.59Z" transform="translate(-4.05 -36.78)"/><path class="cls-8" d="M50,78l-1.17-.91A1,1,0,0,1,48.56,76l1.32-3.37c.16-.39.51-.53.79-.32l1.17.91a1,1,0,0,1,.23,1.1l-1.33,3.38C50.59,78.1,50.23,78.24,50,78Z" transform="translate(-4.05 -36.78)"/><path class="cls-9" d="M66.35,58.83l-1.62,4.51L62.2,70.42l-2.54,7.1-1.08,3a.92.92,0,0,1-.91-.12,2.17,2.17,0,0,1-.61-2.24,1.42,1.42,0,0,1,0-.16l.4-1.15c.63-1.74,1.24-3.48,1.87-5.22.45-1.29.92-2.58,1.38-3.87a2,2,0,0,0,.18-1.12A1.71,1.71,0,0,0,60,65.39a1,1,0,0,0-1,.12l-.1.09a4.42,4.42,0,0,0-.62,1.45q-1.18,3.36-2.39,6.72c-.32.9-.65,1.81-1,2.72l-.3.83c-.29.83-1,1.17-1.6.75a2,2,0,0,1-.53-2.25l1.32-3.7.69-1.94c.47-1.34,1-2.68,1.43-4s.88-2.55,1.37-3.79a1.33,1.33,0,0,0-.05-1,2.05,2.05,0,0,0-.7-1,1.51,1.51,0,0,0-.65-.26.64.64,0,0,0-.54.14c-.32.25-.41.77-.56,1.2-.48,1.31-.94,2.64-1.41,3.95-.38,1.08-.77,2.16-1.15,3.23-.06.18-.13.35-.19.53a1.49,1.49,0,0,1-.55.76.9.9,0,0,1-1.06,0A2,2,0,0,1,50,67.66l2-5.75.14-.37,1.67-4.68.53-1.47a6.59,6.59,0,0,0-3.45-.6A5.7,5.7,0,0,1,55.18,53a7.29,7.29,0,0,1,2.12.44c.54.19,1.07.47,1.62.63,3.7,1.12,5.93-.76,6.42-6,.33-3.52.06-7.13.06-11.27A45.92,45.92,0,0,1,66.35,58.83Z" transform="translate(-4.05 -36.78)"/><path class="cls-10" d="M63.56,48.08c0,2.31-1.31,4.05-3,4s-2.93-2-2.89-4.16,1.38-4,3-4S63.59,45.74,63.56,48.08Z" transform="translate(-4.05 -36.78)"/><path class="cls-11" d="M4.05,56.76c7.92-2.83,16.36-1.83,22.13,7.06S32,86.43,39.56,93.22c5.72,5.12,13,4.93,19.51,3.47-1.89-.21-3.76.26-5.69-.15a18.64,18.64,0,0,1-9.08-5c-3.55-3.44-6.17-8.4-7.89-13.91-1.11-3.56-1.63-7.38-3-10.79-2.62-6.63-7-11.71-12.26-13.5C15.41,51.43,9.33,53.3,4.05,56.76Z" transform="translate(-4.05 -36.78)"/><path class="cls-12" d="M4.05,56.76c5.28-3.46,11.36-5.33,17.12-3.39,5.28,1.79,9.64,6.87,12.26,13.5,1.35,3.41,1.87,7.23,3,10.79,1.72,5.51,4.34,10.47,7.89,13.91a18.64,18.64,0,0,0,9.08,5c1.93.41,3.8-.06,5.69.15-2.24-.25-4.18-3.06-5.62-5.21A75,75,0,0,1,46.87,78.2C42.32,66.92,40,53.94,30.5,48.89,21.49,44.12,11.48,49.24,4.05,56.76Z" transform="translate(-4.05 -36.78)"/><path class="cls-13" d="M70.67,59a10.24,10.24,0,0,1,4.39-8.45,17.31,17.31,0,0,1,10.87-3.37q5,0,7.82,2a6.83,6.83,0,0,1,2.81,5.88,7.48,7.48,0,0,1-1.49,4.82,4.8,4.8,0,0,1-3.93,1.85,4.16,4.16,0,0,1-1.68-.33,3.68,3.68,0,0,1-1.36-1.06A5.82,5.82,0,0,0,90.25,58a7.05,7.05,0,0,0,.83-3.3,4.21,4.21,0,0,0-1.26-3.27,5.19,5.19,0,0,0-3.63-1.16,6.1,6.1,0,0,0-4.46,1.59,5.91,5.91,0,0,0-1.62,4.42,8.76,8.76,0,0,0,1.19,4.4,26.26,26.26,0,0,0,5.15,5.58q5.22,4.56,6.87,7.89A16.51,16.51,0,0,1,95,81.59a15.07,15.07,0,0,1-5.21,12Q84.54,98.1,76.41,98.1q-6.47,0-10.23-3a10.08,10.08,0,0,1-3.77-8.39A11,11,0,0,1,65.25,79a9.07,9.07,0,0,1,6.87-3,6.81,6.81,0,0,1,4.1,1.16,4.1,4.1,0,0,1,1.71,3.2,8.9,8.9,0,0,0-5.58,1.65,5.43,5.43,0,0,0-2.14,4.56A6.28,6.28,0,0,0,71.92,91a6.14,6.14,0,0,0,4.63,1.79,7.07,7.07,0,0,0,5.54-2.38A9.3,9.3,0,0,0,84.21,84a13.28,13.28,0,0,0-1.39-5.94,36.19,36.19,0,0,0-5.75-7.6,32.83,32.83,0,0,1-5.18-6.63A10.73,10.73,0,0,1,70.67,59Z" transform="translate(-4.05 -36.78)"/><path class="cls-13" d="M109.3,90.7a4.09,4.09,0,0,0,3.08-1.48,11.15,11.15,0,0,0,2.21-4.33l4.49-21.2h9.51l-4.76,22.46c-.08.39-.15.76-.19,1.09a6.81,6.81,0,0,0-.07,1,2.41,2.41,0,0,0,.63,1.88,3.06,3.06,0,0,0,2.08.56,4.1,4.1,0,0,0,3.1-1.52,11.08,11.08,0,0,0,2.25-4.29h2.77A21.85,21.85,0,0,1,128.92,94a11.2,11.2,0,0,1-7.79,3.07,6.36,6.36,0,0,1-4.56-1.62,6.91,6.91,0,0,1-2-4.65,14.27,14.27,0,0,1-4.33,4.72,9.88,9.88,0,0,1-5.45,1.55A6.61,6.61,0,0,1,99.63,95a8.4,8.4,0,0,1-1.88-5.85,15.76,15.76,0,0,1,.13-1.94c.09-.73.22-1.51.39-2.35l4.5-21.2h9.51l-4.76,22.46a5.38,5.38,0,0,0-.16.95,8.77,8.77,0,0,0,0,.9,3.43,3.43,0,0,0,.5,2A1.7,1.7,0,0,0,109.3,90.7Z" transform="translate(-4.05 -36.78)"/><path class="cls-13" d="M135.59,110.85l-10,2.37,11-52h9.51l-1.06,5a12.27,12.27,0,0,1,3.57-2.11,11.47,11.47,0,0,1,4.16-.73,7.15,7.15,0,0,1,6,2.64c1.36,1.76,2,4.36,2,7.8q0,10.1-4.33,16.71a13.54,13.54,0,0,1-11.92,6.6,9.35,9.35,0,0,1-3.54-.59A4.1,4.1,0,0,1,139,94.73Zm4.49-21A2.13,2.13,0,0,0,141,91a3,3,0,0,0,1.58.39q4.16,0,6.7-5.35a28.51,28.51,0,0,0,2.55-12.41,8.42,8.42,0,0,0-.8-4.1,2.68,2.68,0,0,0-2.51-1.38,4.2,4.2,0,0,0-2.44.89A7.35,7.35,0,0,0,144,71.35Z" transform="translate(-4.05 -36.78)"/><path class="cls-13" d="M166.5,110.85l-10,2.37,11-52h9.52l-1.06,5a12.27,12.27,0,0,1,3.57-2.11,11.47,11.47,0,0,1,4.16-.73,7.15,7.15,0,0,1,6,2.64q2,2.64,2,7.8,0,10.1-4.32,16.71a13.54,13.54,0,0,1-11.92,6.6,9.35,9.35,0,0,1-3.54-.59,4.06,4.06,0,0,1-2.08-1.79Zm4.49-21a2.11,2.11,0,0,0,.92,1.12,3.07,3.07,0,0,0,1.59.39q4.16,0,6.7-5.35a28.51,28.51,0,0,0,2.55-12.41,8.42,8.42,0,0,0-.8-4.1,2.68,2.68,0,0,0-2.51-1.38A4.17,4.17,0,0,0,177,69a7.35,7.35,0,0,0-2.11,2.34Z" transform="translate(-4.05 -36.78)"/><path class="cls-13" d="M192.92,89.18a15.76,15.76,0,0,1,.13-1.94c.09-.73.22-1.51.39-2.35l7.07-33.09,9.77-1.32-7.59,35.67a10.66,10.66,0,0,0-.2,1.09,8.47,8.47,0,0,0-.06,1,2.41,2.41,0,0,0,.62,1.88,3.06,3.06,0,0,0,2.08.56,5,5,0,0,0,3.5-1.61,9.81,9.81,0,0,0,2.45-4.2h2.77A21,21,0,0,1,208.17,94a12.11,12.11,0,0,1-8.19,3.1A6.61,6.61,0,0,1,194.8,95,8.4,8.4,0,0,1,192.92,89.18Z" transform="translate(-4.05 -36.78)"/><path class="cls-13" d="M222.11,90.7a4,4,0,0,0,3-1.38,10.51,10.51,0,0,0,2.18-4l4.62-21.6h9.51l-6.54,30.65A12.39,12.39,0,0,0,240,91a17,17,0,0,0,3.13-6.11H246A20.43,20.43,0,0,1,241.62,93a15.16,15.16,0,0,1-7.36,4.29l-1,4.76q-1.19,5.55-4.16,8.39a10.73,10.73,0,0,1-7.73,2.83,8,8,0,0,1-5.38-1.71,5.83,5.83,0,0,1-2-4.69,7.56,7.56,0,0,1,2.68-5.71A20.65,20.65,0,0,1,224.75,97l.79-3.57a11.5,11.5,0,0,1-3.6,2.78,10,10,0,0,1-4.32.92A6.63,6.63,0,0,1,212.43,95a8.45,8.45,0,0,1-1.88-5.85,15.76,15.76,0,0,1,.13-1.94c.09-.73.22-1.51.4-2.35l4.49-21.2h9.51l-4.76,22.46c0,.26-.08.54-.13.82a6,6,0,0,0-.06.83,3.9,3.9,0,0,0,.49,2.14A1.66,1.66,0,0,0,222.11,90.7Zm2,9.58a17.18,17.18,0,0,0-4.89,2.61,3.89,3.89,0,0,0-1.58,3,2,2,0,0,0,.66,1.52,2.15,2.15,0,0,0,1.58.66c.75,0,1.48-.52,2.18-1.58a12.89,12.89,0,0,0,1.65-4.29Z" transform="translate(-4.05 -36.78)"/></svg>